PathFileType	4	(X/Y/Z)	C:/Users/opensim2020/Desktop/walking_exp_matlab/subject03_walking12_straight_02.trc																																																																																																																																														
DataRate	CameraRate	NumFrames	NumMarkers	Units	OrigDataRate	OrigDataStartFrame	OrigNumFrames																																																																																																																																										
100	100	7	48	mm	100	1147	187																																																																																																																																										
Frame#	Time	LFHD			RFHD			LBHD			RBHD			C7			T10			CLAV			STRN			RBAK			LSHO			LUPA			LELB			LFRM			LWRA			LWRB			LFIN			RSHO			RUPA			RELB			RFRM			RWRA			RWRB			RFIN			LASI			RASI			LPSI			RPSI			LTHI			LKNE			LTIB			LANK			LHEE			LTOE			RTHI			RKNE			RTIB			RANK			RHEE			RTOE			*39			*40			*41			*42			*43			*44			*45			*46			*47		
		X1	Y1	Z1	X2	Y2	Z2	X3	Y3	Z3	X4	Y4	Z4	X5	Y5	Z5	X6	Y6	Z6	X7	Y7	Z7	X8	Y8	Z8	X9	Y9	Z9	X10	Y10	Z10	X11	Y11	Z11	X12	Y12	Z12	X13	Y13	Z13	X14	Y14	Z14	X15	Y15	Z15	X16	Y16	Z16	X17	Y17	Z17	X18	Y18	Z18	X19	Y19	Z19	X20	Y20	Z20	X21	Y21	Z21	X22	Y22	Z22	X23	Y23	Z23	X24	Y24	Z24	X25	Y25	Z25	X26	Y26	Z26	X27	Y27	Z27	X28	Y28	Z28	X29	Y29	Z29	X30	Y30	Z30	X31	Y31	Z31	X32	Y32	Z32	X33	Y33	Z33	X34	Y34	Z34	X35	Y35	Z35	X36	Y36	Z36	X37	Y37	Z37	X38	Y38	Z38	X39	Y39	Z39	X40	Y40	Z40	X41	Y41	Z41	X42	Y42	Z42	X43	Y43	Z43	X44	Y44	Z44	X45	Y45	Z45	X46	Y46	Z46	X47	Y47	Z47	X48	Y48	Z48
																																																																																																																																																	
47	0.46	-757.25928	1632.38086	-1466.73218	-774.86072	1633.79199	-1335.13708	-884.74127	1589.12317	-1480.17273	-897.35785	1590.1283	-1350.04663	-920.27301	1425.69702	-1420.78955	-951.50476	1113.01538	-1420.7229	-797.39282	1351.04175	-1416.77844	-751.53387	1186.80957	-1423.7843	-974.14667	1249.13574	-1328.22766	-844.26245	1391.47668	-1572.39478	-846.05786	1198.73157	-1649.79053	-823.63904	1079.94983	-1663.63269	-742.34161	983.09821	-1656.48413	-662.83752	900.37476	-1616.87976	-687.29926	883.04303	-1662.92883	-624.34351	829.95789	-1650.19702	-853.49115	1375.60144	-1260.27441	-839.9585	1155.88428	-1184.65625	-812.96973	1046.46582	-1170.30676	-780.45587	913.57599	-1166.10205	-737.7644	822.23816	-1199.52002	-770.27362	813.75031	-1156.72009	-739.7774	745.32391	-1165.00098	-782.78046	952.90631	-1535.99255	-785.96393	948.94727	-1299.23889	-945.50677	969.94092	-1488.47583	-944.09595	979.70953	-1339.59729	-774.05847	654.00482	-1593.52625	-716.19952	483.36929	-1572.56702	-830.12793	320.52658	-1566.55896	-937.07544	142.9782	-1522.76697	-988.35834	127.63711	-1481.16895	-821.83911	51.34228	-1506.43323	-838.61932	649.70068	-1267.49268	-826.90057	474.00671	-1313.08484	-881.55402	287.39325	-1315.45886	-920.15332	76.54697	-1371.08643	-963.59747	46.64739	-1423.23901	-779.46265	37.25158	-1381.06445	-844.65247	1688.58838	-1417.41846	NaN	NaN	NaN	NaN	NaN	NaN	NaN	NaN	NaN	NaN	NaN	NaN	NaN	NaN	NaN	NaN	NaN	NaN	NaN	NaN	NaN	NaN	NaN	NaN
48	0.47	-743.86121	1632.19409	-1467.12622	-761.53131	1633.78748	-1335.57312	-872.1889	1589.30408	-1481.57947	-884.01282	1590.08704	-1350.53687	-907.27277	1425.81848	-1421.02161	-939.03052	1113.23328	-1420.15845	-784.54102	1350.95068	-1417.13318	-739.01941	1186.59741	-1423.85303	-960.98395	1249.43677	-1327.29675	-831.51538	1390.92224	-1572.68042	-835.38904	1197.75391	-1649.35974	-814.91327	1078.29163	-1662.8103	-736.34912	978.41663	-1656.1012	-659.70428	892.84039	-1617.36584	-685.17255	876.54736	-1663.2196	-624.47205	820.51147	-1650.67688	-840.27472	1376.13623	-1260.56653	-824.5177	1156.87622	-1184.29126	-795.76904	1048.01855	-1169.94214	-760.08154	915.90784	-1166.08008	-715.18457	825.83838	-1199.89355	-747.38641	816.29559	-1157.27185	-715.02118	748.93408	-1165.47229	-770.6806	953.00098	-1536.02637	-773.84186	948.66248	-1299.44897	-933.03583	970.24396	-1488.51526	-931.7641	980.00128	-1339.57324	-757.10168	655.73285	-1593.11157	-696.51581	486.10486	-1570.48267	-802.08746	316.84027	-1565.08765	-898.42255	133.07796	-1521.84631	-949.35748	114.76125	-1480.47083	-777.185	49.64249	-1505.4469	-830.6604	649.75519	-1268.00073	-823.13611	473.64313	-1312.94983	-879.9823	287.95251	-1315.58801	-919.90936	77.20625	-1371.46387	-963.2088	47.52954	-1423.78796	-779.26178	37.1697	-1381.04504	-832.37744	1694.0603	-1427.15784	NaN	NaN	NaN	NaN	NaN	NaN	NaN	NaN	NaN	NaN	NaN	NaN	NaN	NaN	NaN	NaN	NaN	NaN	NaN	NaN	NaN	NaN	NaN	NaN
49	0.48	-730.43585	1631.69629	-1467.55359	-748.04395	1633.20544	-1336.06885	-858.37012	1588.78552	-1481.58496	-870.737	1589.84143	-1350.95569	-894.07068	1425.47119	-1421.14465	-926.49725	1113.08386	-1419.82764	-771.61993	1350.5769	-1417.47241	-726.28235	1186.08936	-1423.93994	-947.82037	1249.23108	-1326.4856	-818.71863	1389.99548	-1573.02344	-824.5611	1196.39929	-1648.93176	-805.86987	1076.30847	-1662.08069	-730.52283	973.40845	-1655.92114	-656.80286	884.80585	-1617.86816	-683.58887	869.71021	-1663.71082	-625.07965	810.87811	-1651.30762	-826.93011	1376.30676	-1260.83911	-809.23248	1157.50146	-1183.85498	-778.67554	1049.20837	-1169.49451	-739.83032	917.91992	-1166.1543	-692.74213	829.2558	-1200.34473	-724.74933	818.6637	-1157.78748	-690.2478	752.44067	-1166.06531	-758.87152	952.82086	-1535.53552	-761.83588	948.01801	-1299.66455	-920.56763	970.01025	-1488.77026	-919.62189	979.92468	-1339.71472	-740.27417	656.99951	-1592.87878	-677.63702	488.31461	-1568.62427	-774.52875	313.27014	-1564.09473	-859.05981	123.46859	-1521.1853	-908.62933	101.69108	-1479.87878	-732.76825	48.04886	-1504.69153	-822.88306	649.68738	-1268.58813	-819.11835	473.15182	-1312.75964	-878.10156	288.47119	-1315.73572	-919.6272	77.89739	-1371.83533	-962.79816	48.55411	-1424.33704	-779.25793	37.13505	-1380.90833	-817.74371	1688.19092	-1418.40552	NaN	NaN	NaN	NaN	NaN	NaN	NaN	NaN	NaN	NaN	NaN	NaN	NaN	NaN	NaN	NaN	NaN	NaN	NaN	NaN	NaN	NaN	NaN	NaN
50	0.49	-717.0365	1630.9325	-1468.0553	-734.80817	1632.68201	-1336.53052	-845.44025	1588.13049	-1482.43994	-857.4505	1589.38879	-1351.40771	-880.99738	1425.00208	-1421.38696	-914.01923	1112.58325	-1419.67273	-758.66693	1349.84558	-1417.83044	-714.27466	1185.00208	-1423.9856	-934.65399	1248.71338	-1325.81726	-805.89691	1388.73694	-1573.36475	-813.58972	1194.70618	-1648.46216	-796.45795	1074.01208	-1661.42261	-725.01001	968.28687	-1655.91467	-654.30878	876.51886	-1618.54248	-682.04883	862.53912	-1664.1637	-626.12939	801.10114	-1652.03748	-813.59735	1376.12512	-1261.04822	-793.8858	1157.82043	-1183.42676	-761.70453	1050.0426	-1169.02954	-719.62524	919.68561	-1166.22546	-669.73865	832.49902	-1200.91064	-702.22064	820.80127	-1158.36096	-665.53882	755.76666	-1166.91565	-746.10632	952.36371	-1535.68494	-749.79926	947.29523	-1299.84924	-908.15686	969.17749	-1489.12915	-907.57257	979.4483	-1340.03687	-723.66107	657.7229	-1592.6897	-659.55487	489.95651	-1566.98242	-746.52924	309.1821	-1562.88208	-818.8136	113.959	-1520.55933	-866.58716	88.64261	-1479.0155	-688.0578	47.33057	-1504.14478	-814.77557	649.5191	-1269.31274	-814.78693	472.74884	-1312.67114	-876.04779	288.94955	-1315.86951	-919.41498	78.47912	-1372.27014	-962.48743	49.5863	-1425.01062	-779.14099	37.04214	-1380.85303	-804.3031	1687.49414	-1418.81238	NaN	NaN	NaN	NaN	NaN	NaN	NaN	NaN	NaN	NaN	NaN	NaN	NaN	NaN	NaN	NaN	NaN	NaN	NaN	NaN	NaN	NaN	NaN	NaN
51	0.5	-703.71204	1629.90173	-1468.56482	-721.54877	1631.84558	-1337.05737	-832.20532	1587.16248	-1483.05872	-844.21289	1588.52502	-1351.98633	-867.7301	1424.20459	-1421.55627	-901.54474	1111.7998	-1419.76611	-745.61755	1348.79395	-1418.17822	-701.44067	1183.73877	-1424.25183	-921.55951	1248.01697	-1325.28137	-793.04352	1387.23474	-1573.78357	-802.46313	1192.74133	-1648.02637	-786.74298	1071.49683	-1660.81165	-719.25177	962.78497	-1655.82971	-652.21411	867.92316	-1619.22119	-680.80511	855.18915	-1664.68921	-627.6709	791.26758	-1652.85559	-800.1026	1375.53467	-1261.28064	-778.513	1157.70715	-1183.03857	-744.83844	1050.50073	-1168.6322	-699.61908	921.26202	-1166.34802	-648.30139	835.55536	-1201.71167	-679.41083	822.75507	-1159.39868	-640.89288	759.09625	-1167.93677	-733.41351	951.30084	-1535.92932	-737.91168	946.36816	-1300.03638	-895.6983	967.80353	-1489.73401	-895.71741	978.58044	-1340.6488	-707.31427	658.01538	-1592.63843	-642.25336	491.05911	-1565.45325	-719.12384	305.3616	-1562.16711	-778.31146	105.57857	-1520.18213	-825.31372	78.00792	-1479.58667	-643.50177	46.97252	-1503.6394	-806.89655	649.13849	-1269.69604	-810.09583	472.37213	-1312.61206	-873.66272	289.34933	-1316.09106	-919.12976	79.40036	-1372.96729	-962.12256	50.63588	-1425.85779	-779.28546	37.03603	-1380.77332	-792.86835	1692.6167	-1429.31799	NaN	NaN	NaN	NaN	NaN	NaN	NaN	NaN	NaN	NaN	NaN	NaN	NaN	NaN	NaN	NaN	NaN	NaN	NaN	NaN	NaN	NaN	NaN	NaN
52	0.51	-690.39819	1628.55444	-1469.0907	-708.28339	1630.75488	-1337.64819	-818.43207	1585.57288	-1483.01904	-830.85254	1587.37634	-1352.37	-854.31757	1423.12598	-1421.54736	-889.08838	1110.76782	-1420.10889	-732.56805	1347.38928	-1418.53015	-688.61145	1182.1958	-1424.46228	-908.52551	1247.12048	-1324.91626	-780.18884	1385.49121	-1574.1615	-791.16113	1190.521	-1647.50891	-776.67737	1068.7428	-1660.2345	-713.46729	957.04572	-1655.77673	-650.49347	859.12524	-1619.89087	-679.79431	847.8269	-1665.30432	-629.68463	781.62006	-1653.81311	-786.62427	1374.51965	-1261.53174	-763.15381	1157.27112	-1182.6405	-728.05579	1050.57422	-1168.18848	-679.68848	922.54718	-1166.55847	-626.50201	838.40594	-1202.56091	-656.9364	824.60583	-1160.22668	-616.42334	762.2666	-1169.19861	-719.24091	950.43176	-1536.15344	-725.95398	945.1861	-1300.04883	-883.14868	965.93079	-1490.59119	-883.92426	977.29181	-1341.51355	-691.09564	657.90741	-1592.64636	-626.06982	491.64944	-1564.43652	-691.97089	301.67377	-1561.49805	-737.76947	98.51755	-1520.62109	-782.31915	67.27908	-1478.9928	-599.22339	47.2664	-1503.16431	-799.15161	648.68109	-1269.84778	-805.05255	471.72803	-1312.97156	-870.90063	289.6857	-1316.60388	-918.69269	80.07097	-1373.49402	-961.7973	51.64716	-1426.58789	-778.8233	36.88003	-1380.95386	-777.51831	1685.34351	-1420.22888	NaN	NaN	NaN	NaN	NaN	NaN	NaN	NaN	NaN	NaN	NaN	NaN	NaN	NaN	NaN	NaN	NaN	NaN	NaN	NaN	NaN	NaN	NaN	NaN
53	0.52	-677.07703	1626.99768	-1469.65674	-695.05145	1629.41931	-1338.25256	-805.48291	1584.11011	-1484.07288	-817.60944	1585.92542	-1352.91699	-840.93488	1421.87219	-1421.69141	-876.62598	1109.46326	-1420.6864	-719.47302	1345.74402	-1418.8905	-676.11279	1180.24072	-1424.63904	-895.56256	1246.06885	-1324.78723	-767.22144	1383.42712	-1574.54504	-779.69281	1188.09094	-1647.02527	-766.33368	1065.84033	-1659.61963	-707.65424	951.21527	-1655.6698	-649.13818	850.38733	-1620.59302	-679.06323	840.64337	-1665.9707	-632.0155	772.1001	-1654.85535	-773.0462	1373.22241	-1261.80188	-747.80084	1156.47278	-1182.33521	-711.43457	1050.37231	-1167.76563	-660.05322	923.60724	-1166.76526	-604.86328	841.18976	-1203.52783	-634.72052	826.27826	-1161.22449	-592.13507	765.32196	-1170.56738	-706.49005	948.69751	-1536.14832	-713.99951	943.83868	-1299.76123	-870.44336	963.72137	-1491.59937	-872.16638	975.56268	-1342.57849	-675.57129	657.18854	-1592.50159	-609.78516	491.51019	-1562.85974	-665.33032	298.13535	-1561.17969	-696.34686	91.00735	-1519.71912	-739.4541	58.55409	-1478.90735	-555.15222	48.26154	-1502.78284	-791.091	647.96625	-1270.27893	-799.34406	471.00867	-1313.20703	-867.80322	289.88983	-1317.01099	-918.27985	80.77781	-1374.06799	-961.50751	52.68691	-1427.27075	-778.76776	36.80633	-1381.03601	-764.19232	1683.65869	-1420.45703	NaN	NaN	NaN	NaN	NaN	NaN	NaN	NaN	NaN	NaN	NaN	NaN	NaN	NaN	NaN	NaN	NaN	NaN	NaN	NaN	NaN	NaN	NaN	NaN
